<svg width="35" height="45" viewBox="0 0 35 45" fill="none" xmlns="http://www.w3.org/2000/svg">
<path d="M2.66934 20.4891C2.77351 20.7285 3.00626 20.9554 3.22842 20.9228C3.5808 20.8691 4.06094 20.308 4.55899 19.8666C6.34121 18.3239 8.5995 19.0117 9.20822 20.5419C9.83241 22.1017 8.50103 23.503 8.63856 24.5381C8.69645 24.9888 9.0499 25.3535 9.51595 25.4435C9.98201 25.5334 10.456 25.3284 10.6926 24.9345C11.4372 23.7136 9.44911 21.3005 10.809 19.279C11.5465 18.2057 12.9002 17.6771 14.2139 17.9493C15.7841 18.3442 16.8198 19.7718 16.6553 21.3144C16.5739 21.9494 16.2671 22.6014 16.3762 22.955C16.4818 23.1924 16.7388 23.3346 17.0069 23.304C17.3439 23.243 17.6168 23.0068 17.7132 22.6924C17.994 21.8429 17.299 20.5528 17.9297 19.3008C18.5828 18.1568 19.9854 17.6058 21.2923 17.9796C24.4303 18.7568 24.8674 22.7623 26.062 23.1361C26.2728 23.2014 26.3444 23.1501 26.3875 23.1183C26.7093 22.7398 26.8598 22.2546 26.8058 21.7699C26.7464 21.0533 25.8976 19.1275 27.4284 18.2563C28.5254 17.6392 29.6655 18.2742 31.7122 18.8003C31.6471 18.599 31.5031 18.2928 31.3802 18.0169C31.1174 17.4553 30.7575 16.9398 30.3157 16.4921C28.9225 14.9938 27.2319 13.7742 25.3418 12.9039C25.0686 13.278 24.7587 13.6264 24.4165 13.9446C24.7674 14.0662 24.9852 14.4017 24.9432 14.756C24.9012 15.1102 24.6104 15.3907 24.2399 15.4344C20.073 15.9477 15.8536 15.9375 11.6895 15.4041C11.4025 15.3591 11.1625 15.1713 11.0598 14.9115C10.9571 14.6517 11.0074 14.3593 11.1916 14.1445C11.3759 13.9296 11.6662 13.825 11.9532 13.87C12.6115 13.971 12.0769 14.0052 11.0173 12.6218C8.42779 13.6321 5.15794 15.4593 3.55313 17.654C3.04613 18.3441 2.32104 19.7127 2.66934 20.4891V20.4891Z" fill="white"/>
<path d="M27.1166 1.01415C25.0007 -0.0443562 23.1216 -0.219996 21.5331 0.488004C19.9446 1.196 18.7621 2.74179 17.989 5.06319C17.9703 5.02744 17.9459 4.99558 17.9304 4.95905C17.7435 4.52405 17.4336 4.14731 17.0352 3.87102C16.2545 3.31857 15.253 3.13551 14.3139 3.37363C13.707 3.54812 13.1501 3.85336 12.6863 4.26582C10.7209 5.9546 10.4377 8.82857 12.0019 11.2479C12.9095 12.634 14.2914 13.6775 15.913 14.2011C17.6529 14.2717 19.3955 14.2548 21.1335 14.1506C22.4835 13.6525 23.6109 12.7228 24.3236 11.5199C24.8889 10.5267 25.0775 9.37743 24.8575 8.26668C24.7535 7.66413 24.506 7.09245 24.134 6.59577C23.5416 5.86085 22.6349 5.4189 21.6641 5.39193C21.18 5.37083 20.6998 5.48305 20.2807 5.71523C20.0186 5.86599 19.7154 5.93877 19.4099 5.92429C20.0365 3.8034 20.9805 2.45035 22.2248 1.89623C23.3308 1.40351 24.7232 1.56982 26.3671 2.39129C26.6265 2.53764 26.9493 2.53515 27.2062 2.38481C27.4631 2.23447 27.612 1.96089 27.5932 1.67372C27.5744 1.38655 27.391 1.13279 27.1166 1.01415V1.01415ZM14.8681 6.13413C14.6959 6.13415 14.5314 6.20189 14.4132 6.32142C14.2103 6.53105 14.0588 6.78112 13.9696 7.05352C13.8123 7.4557 13.3434 7.65994 12.9223 7.50972C12.5011 7.35949 12.2873 6.91168 12.4446 6.5095C12.6148 6.01788 12.9014 5.57032 13.282 5.20153C13.7613 4.74204 14.4356 4.51924 15.1098 4.59767C15.4017 4.63452 15.65 4.81909 15.7591 5.0803C15.8681 5.34151 15.8209 5.63861 15.6356 5.85717C15.4503 6.07572 15.1559 6.18164 14.8656 6.13413H14.8681Z" fill="white"/>
<path d="M22.7424 31.4099C22.6667 31.3322 22.5935 31.2545 22.5227 31.1768C21.5378 32.9527 19.6053 34.0631 17.5009 34.0621C15.3965 34.0611 13.4652 32.949 12.482 31.1721C12.4276 31.2571 12.3626 31.3354 12.2884 31.4053C10.0317 33.6746 6.17102 33.7927 3.2861 32.7482C4.512 36.8869 6.4736 40.7936 9.08524 44.2977C9.63618 44.4625 11.7455 44.942 17.5138 44.942C23.2486 44.942 25.3661 44.4687 25.9439 44.2977C28.5541 40.7943 30.5149 36.8887 31.7406 32.7513C28.8549 33.7966 24.995 33.6769 22.7424 31.4099V31.4099ZM12.2688 43.2571C12.0893 43.3715 11.8694 43.4131 11.6578 43.3727C11.4461 43.3324 11.2599 43.2133 11.1401 43.0418C9.47098 40.6512 7.85803 36.0558 7.78967 35.8616C7.69779 35.5978 7.76025 35.3072 7.95352 35.0994C8.14678 34.8915 8.44149 34.7979 8.72663 34.8538C9.01176 34.9097 9.24401 35.1066 9.33589 35.3704C9.35135 35.4162 10.948 39.9627 12.4959 42.1791C12.6155 42.3508 12.6588 42.5609 12.6162 42.763C12.5737 42.9652 12.4487 43.1429 12.2688 43.2571V43.2571ZM15.8862 41.8333C15.8862 42.2625 15.5218 42.6105 15.0724 42.6105C14.6229 42.6105 14.2586 42.2625 14.2586 41.8333V36.3931C14.2586 35.9639 14.6229 35.616 15.0724 35.616C15.5218 35.616 15.8862 35.9639 15.8862 36.3931V41.8333ZM20.769 41.8333C20.769 42.2625 20.4046 42.6105 19.9552 42.6105C19.5057 42.6105 19.1414 42.2625 19.1414 41.8333V36.3931C19.1414 35.9639 19.5057 35.616 19.9552 35.616C20.4046 35.616 20.769 35.9639 20.769 36.3931V41.8333ZM27.2379 35.8616C27.1695 36.0558 25.5565 40.6512 23.8874 43.0418C23.7261 43.2728 23.4479 43.4041 23.1577 43.3861C22.8676 43.3682 22.6095 43.2037 22.4807 42.9548C22.3519 42.7058 22.3719 42.4102 22.5333 42.1791C24.0795 39.9603 25.6778 35.4178 25.6933 35.3704C25.8353 34.9626 26.2966 34.742 26.7235 34.8777C27.1505 35.0133 27.3815 35.4538 27.2395 35.8616H27.2379Z" fill="white"/>
<path d="M34.4173 25.2353C33.9599 23.4908 33.2055 21.8299 32.1842 20.3189C31.8996 20.3797 31.6039 20.3749 31.3216 20.3049C28.2234 19.5138 27.8401 18.8928 28.2853 20.8769C28.3495 21.1328 28.396 21.3924 28.4244 21.6541C28.5274 22.6552 28.1448 23.6462 27.386 24.3439C26.4502 25.0433 24.9259 24.8693 23.8867 23.116C23.1046 21.8072 22.4105 19.8627 20.8756 19.4827C20.3227 19.3168 19.7213 19.5175 19.397 19.9762C19.0714 20.629 19.6525 21.9906 19.2684 23.1533C18.987 24.0571 18.1785 24.7204 17.2005 24.8498C16.1423 24.9711 15.1421 24.3602 14.8136 23.3919C14.7022 22.6328 14.7795 21.8594 15.0391 21.1342C15.1055 20.3754 14.6033 19.6768 13.8379 19.4633C13.1939 19.3481 12.5398 19.6096 12.1737 20.1285C11.2858 21.4497 13.3089 23.7354 12.0988 25.7195C11.5111 26.6895 10.3403 27.1927 9.19032 26.9696C8.04029 26.7465 7.16794 25.8469 7.02313 24.7348C6.82701 23.2442 8.01678 21.9152 7.68801 21.093C7.54588 20.801 7.25672 20.5991 6.92222 20.5583C5.5762 20.378 5.07164 22.2152 3.4888 22.4538C2.90469 22.5365 2.3119 22.3713 1.86609 22.0015C-0.0577353 25.6449 -0.482538 29.4227 3.42207 31.1208C5.91067 32.1948 9.52068 32.156 11.2581 30.1726C11.6027 29.7841 12.1254 29.5824 12.6559 29.6335C13.1863 29.6846 13.6564 29.9819 13.9128 30.4283C14.5778 31.7396 15.989 32.5539 17.5138 32.5065C19.0383 32.5542 20.4493 31.7405 21.1149 30.4299C21.3712 29.984 21.8408 29.687 22.3708 29.6358C22.9008 29.5846 23.4232 29.7856 23.7679 30.1734C25.5257 32.1723 29.1389 32.1894 31.6072 31.1223C34.1756 30.0056 34.9959 27.8839 34.4173 25.2353V25.2353Z" fill="white"/>
</svg>
