<svg width="87" height="85" viewBox="0 0 87 85" fill="none" xmlns="http://www.w3.org/2000/svg">
<path d="M26.9037 38.8251C26.0384 38.2446 24.7661 37.075 23.9694 36.2018C23.4689 36.9777 21.779 38.9759 19.8435 41.1409C19.0384 40.4211 18.0798 39.6929 17.1071 39.0164C18.1148 37.8892 19.0567 36.7997 19.8066 35.9248C22.8786 32.2005 19.6813 28.827 17.2536 28.8779C18.3707 30.6171 18.0947 32.3663 16.8321 34.1026C16.388 34.6714 15.4141 35.7967 14.2126 37.1048C12.9094 36.2938 11.771 35.6947 11.1581 35.372C10.9962 35.5171 10.554 36.1197 10.4261 36.2628C11.039 36.5855 11.9995 37.3476 13.1051 38.2716C11.1319 40.3706 8.87921 42.6384 7.52039 43.8702C8.70021 44.603 9.70218 45.4988 10.8644 46.8275C11.5161 45.4143 13.5739 43.0045 15.6994 40.5909C16.5621 41.4265 17.4247 42.2621 18.1301 43.0215C15.7749 45.5839 13.4103 47.9768 12.5576 48.5345C13.5029 49.0255 15.39 50.5516 15.9515 51.472C16.7567 50.0672 25.2662 39.9366 26.9037 38.8251Z" fill="#DB3559"/>
<path d="M29.0043 46.1895C29.2038 44.6923 28.3511 43.6288 27.0414 43.1992C24.8438 42.4586 21.9717 43.5489 20.2268 47.2635C18.4718 50.9999 20.2263 53.8127 22.1162 54.7005C25.8308 56.4453 28.4064 53.3331 29.3781 50.9258C30.3484 48.4649 29.0106 46.0068 26.7471 46.0838C27.9178 46.9784 27.7325 48.6149 26.8855 50.4179C26.0679 52.1021 24.6753 53.5426 23.5124 52.9699C22.057 52.2862 22.1133 50.6422 22.9435 48.5927C24.22 45.4801 26.913 44.0935 29.0043 46.1895Z" fill="#DB3559"/>
<path d="M36.5274 45.5609C36.9014 45.1042 38.1109 43.9999 39.3527 43.2967C37.7518 43.3035 36.9422 43.2926 35.7921 43.1554C36.5236 40.4665 37.2224 38.1393 37.7046 37.3134C36.3471 38.3104 34.6778 39.163 33.2306 39.7952C33.1706 40.4952 32.9609 41.5305 32.6855 42.7477C32.4982 42.7053 32.3057 42.6863 32.0897 42.6621C31.573 42.9881 30.6399 43.9581 29.8468 44.4184C30.5755 44.4602 31.3873 44.5701 32.2044 44.6566C31.4085 47.8476 30.3525 51.6442 29.8719 54.0945C29.0695 58.293 33.4605 59.1143 35.215 57.1244C33.8617 57.0151 32.9712 55.7309 33.2271 54.1647C33.5012 52.6273 34.3359 48.8299 35.2558 45.1994C35.7708 45.3159 36.2102 45.44 36.5274 45.5609Z" fill="#DB3559"/>
<path d="M50.3712 48.7197C52.5824 47.9413 53.2637 45.4321 52.4054 43.9618C51.4503 42.3364 49.0545 42.3905 47.2101 43.185C44.2438 44.4199 42.1089 48.3677 43.2537 53.8978C45.0239 62.5368 53.0017 62.9328 56.7145 58.0373C49.9898 60.4106 47.4969 55.7442 46.8023 53.1316C45.9487 49.9607 45.6695 45.9483 47.9172 45.0915C49.6576 44.4101 51.3081 46.6081 50.3712 48.7197Z" fill="#DB3559"/>
<path d="M61.0044 44.5643C60.1504 45.0675 58.8743 45.6238 57.824 45.977C58.356 46.8971 59.015 48.4687 59.6739 50.0403C60.0254 51.327 59.951 52.5376 59.2126 52.8857C57.843 53.5876 56.3378 51.7565 55.7776 50.3513C53.9118 45.7713 57.3653 44.6847 58.4309 45.2673C58.0907 43.7662 56.1128 42.9529 54.4047 43.9593C52.709 44.9342 50.9277 47.3341 52.7692 51.5581C54.7641 56.1342 57.6254 56.0912 58.9234 55.5253C60.3314 54.9114 60.8672 53.9186 60.98 52.796C61.2926 53.3928 61.5792 53.87 61.8934 54.2305C63.776 56.4468 66.1751 54.5631 66.8711 52.9767C63.7685 53.7272 61.5872 46.5618 61.0044 44.5643Z" fill="#DB3559"/>
<path d="M67.042 35.6652C66.319 36.5636 65.4803 37.092 64.4927 37.7417C65.81 39.2069 67.0679 41.5873 65.7893 43.2478C68.9875 47.1741 74.7805 48.2439 77.5302 43.3731C74.1879 44.3621 70.6487 44.2733 68.4433 41.9837C68.8549 40.627 68.5673 37.7658 67.042 35.6652ZM53.1694 38.2049C54.6408 37.1612 55.99 37.1455 57.1813 38.342C58.2023 39.3676 65.6506 48.7778 67.0318 51.1195C67.6852 50.4016 68.7969 49.3723 69.8706 48.7144C68.2907 47.6488 62.4272 39.4241 59.59 36.4729C56.9987 33.7857 53.5577 35.9075 53.1694 38.2049Z" fill="#DB3559"/>
<path d="M74.8431 37.3416C76.1499 36.6908 77.7538 33.4344 75.1088 31.2368C72.3475 28.9544 70.2851 29.8262 68.9128 31.7068C67.6113 33.4904 67.0359 36.8438 71.1266 39.8289C76.1866 43.5213 82.3338 39.3317 79.7732 34.0464C79.2021 36.9869 76.2374 39.3395 72.8992 36.9926C71.0097 35.6733 69.0753 33.8456 69.9843 32.5184C70.8033 31.274 72.4533 32.2701 73.3676 33.175C74.3155 34.0746 75.1507 35.9023 74.8431 37.3416Z" fill="#DB3559"/>
</svg>
