<svg width="20" height="21" viewBox="0 0 20 21" fill="none" xmlns="http://www.w3.org/2000/svg">
<g opacity="0.1">
<path d="M19.4755 15.1878L16.6786 12.3909C15.6797 11.392 13.9816 11.7916 13.582 13.0901C13.2823 13.9892 12.2834 14.4886 11.3844 14.2888C9.38661 13.7893 6.68957 11.1922 6.19012 9.09449C5.89045 8.19544 6.48979 7.19654 7.3888 6.8969C8.68738 6.49734 9.08694 4.7992 8.08804 3.8003L5.2911 1.00337C4.49198 0.304135 3.29329 0.304135 2.59406 1.00337L0.696144 2.90129C-1.20177 4.8991 0.895925 10.1933 5.59077 14.8881C10.2856 19.583 15.5798 21.7806 17.5776 19.7828L19.4755 17.8849C20.1748 17.0857 20.1748 15.887 19.4755 15.1878Z" fill="#484242"/>
</g>
</svg>
