<svg width="117" height="135" viewBox="0 0 117 135" fill="none" xmlns="http://www.w3.org/2000/svg">
<path d="M99.8672 100.419L91.8921 108.351C86.0132 114.148 78.3874 121.606 69.0081 130.727C66.1891 133.468 62.4213 135 58.5 135C54.5787 135 50.8109 133.468 47.9919 130.727L24.5368 107.783C21.5873 104.872 19.1215 102.419 17.1328 100.419C8.95184 92.1922 3.38067 81.7106 1.12378 70.2998C-1.13311 58.8889 0.0256257 47.0614 4.45347 36.3127C8.88132 25.5641 16.3794 16.3771 25.9996 9.91352C35.6198 3.44992 46.93 0 58.5 0C70.07 0 81.3802 3.44992 91.0004 9.91352C100.621 16.3771 108.119 25.5641 112.547 36.3127C116.974 47.0614 118.133 58.8889 115.876 70.2998C113.619 81.7106 108.048 92.1922 99.8672 100.419Z" fill="url(#paint0_linear_5_29)"/>
<defs>
<linearGradient id="paint0_linear_5_29" x1="72.026" y1="176.625" x2="72.6366" y2="17.1634" gradientUnits="userSpaceOnUse">
<stop stop-color="#802034"/>
<stop offset="0.508333" stop-color="#DA3E60"/>
<stop offset="1" stop-color="#FA7491"/>
</linearGradient>
</defs>
</svg>
